# xmcd
#
# Track frame offsets:
#	150
#	15495
#	36140
#	57006
#	80938
#	102390
#	120364
#	139676
#	163630
#	182500
#	199101
#
# Disc length: 2742 seconds
#
# Revision: 1
# Processed by: cddbd v1.5.2PL0 Copyright (c) Steve Scherf et al.
# Submitted via: audiograbber 1.83.01
#
DISCID=890ab40b
DTITLE=Michael Martin Murphey - Heartland Cowboy: Cowboy Songs, Vol. 5
DYEAR=2006
DGENRE=Country
TTITLE0=Free Rein (Jessica's Song)
TTITLE1=Close to the Land (America's Heartland Theme)
TTITLE2=The Wheel Comes Around (Morgan's Song)
TTITLE3=Dry Lightning
TTITLE4=Out of Line (Karen's Song)
TTITLE5=Long and Lonesome Ride to Dalhart
TTITLE6=Storm Over the Rangeland (The Ballad of Kit Laney)
TTITLE7=Ride out the Storm
TTITLE8=Bluebonnets
TTITLE9=My Country Under God (Sarah's Song)
TTITLE10=America's Heartland (Reprise).Simple Gifts
EXTD=
EXTT0=
EXTT1=
EXTT2=
EXTT3=
EXTT4=
EXTT5=
EXTT6=
EXTT7=
EXTT8=
EXTT9=
EXTT10=
PLAYORDER=
